<svg width="500" height="80" viewBox="0 0 500 80" fill="none" xmlns="http://www.w3.org/2000/svg">
<path fill-rule="evenodd" clip-rule="evenodd" d="M84.6352 2H4V78H20.379V47.4755H79.5955V34.3936H20.379V13.2131H84.6352V2ZM103.534 26.9181H91.5648V78H103.534V26.9181ZM112.354 78V26.9181H122.433L170.94 63.6723V26.9181H182.279V78H172.2L123.693 41.246V78H112.354ZM220.707 26.9181L186.689 78H199.288L225.747 39.377L250.946 78H264.175L229.527 26.9181H220.707ZM267.955 78V26.9181H278.035L326.54 64.2953V26.9181H337.251V78H327.171L278.035 41.246V78H267.955ZM416.624 26.9181H346.7V36.2624H395.836L346.7 70.5247V78H416.624V68.0329H368.119L416.624 34.3936V26.9181ZM419.145 78L453.162 26.9181H461.983L496 78H482.771L458.203 38.7542L431.745 78H419.145Z" fill="white"/>
<path d="M476.925 14.8191H473.068V24.6767H470.461V14.8191H466.656V12.9414H476.925V14.8191ZM481.795 12.9414L485.034 21.4169L488.259 12.9414H491.669V24.6767H489.038V21.4169L489.327 15.8622L485.916 24.6767H484.14L480.744 15.8752L481.006 21.4169V24.6767H478.412V12.9414H481.795Z" fill="white"/>
</svg>
